<?xml version="1.0" encoding="UTF-8" standalone="no"?>
<!DOCTYPE svg PUBLIC "-//W3C//DTD SVG 1.1//EN"
 "http://www.w3.org/Graphics/SVG/1.1/DTD/svg11.dtd">
<!-- Generated by graphviz version 2.40.1 (20161225.0304)
 -->
<!-- Title: public.notifications Pages: 1 -->
<svg width="420pt" height="742pt"
 viewBox="0.00 0.00 420.00 742.00" xmlns="http://www.w3.org/2000/svg" xmlns:xlink="http://www.w3.org/1999/xlink">
<g id="graph0" class="graph" transform="scale(1 1) rotate(0) translate(4 738)">
<title>public.notifications</title>
<polygon fill="#ffffff" stroke="transparent" points="-4,4 -4,-738 416,-738 416,4 -4,4"/>
<!-- public.notifications -->
<g id="node1" class="node">
<title>public.notifications</title>
<polygon fill="#efefef" stroke="transparent" points="108,-652.5 108,-687.5 366,-687.5 366,-652.5 108,-652.5"/>
<polygon fill="none" stroke="#000000" points="108,-652.5 108,-687.5 366,-687.5 366,-652.5 108,-652.5"/>
<text text-anchor="start" x="114.8584" y="-665.3" font-family="Arial Bold" font-size="18.00" fill="#000000">public.notifications</text>
<text text-anchor="start" x="261.8878" y="-665.3" font-family="Arial" font-size="14.00" fill="#000000"> </text>
<text text-anchor="start" x="265.7784" y="-665.3" font-family="Arial" font-size="14.00" fill="#666666">[BASE TABLE]</text>
<polygon fill="none" stroke="#000000" points="108,-622.5 108,-652.5 366,-652.5 366,-622.5 108,-622.5"/>
<text text-anchor="start" x="115" y="-633.9" font-family="Arial" font-size="14.00" fill="#000000">id </text>
<text text-anchor="start" x="129.7798" y="-633.9" font-family="Arial" font-size="14.00" fill="#666666">[bigint]</text>
<polygon fill="none" stroke="#000000" points="108,-592.5 108,-622.5 366,-622.5 366,-592.5 108,-592.5"/>
<text text-anchor="start" x="115" y="-603.9" font-family="Arial" font-size="14.00" fill="#000000">created_at </text>
<text text-anchor="start" x="185.028" y="-603.9" font-family="Arial" font-size="14.00" fill="#666666">[timestamp with time zone]</text>
<polygon fill="none" stroke="#000000" points="108,-562.5 108,-592.5 366,-592.5 366,-562.5 108,-562.5"/>
<text text-anchor="start" x="115" y="-573.9" font-family="Arial" font-size="14.00" fill="#000000">updated_at </text>
<text text-anchor="start" x="188.9326" y="-573.9" font-family="Arial" font-size="14.00" fill="#666666">[timestamp with time zone]</text>
<polygon fill="none" stroke="#000000" points="108,-532.5 108,-562.5 366,-562.5 366,-532.5 108,-532.5"/>
<text text-anchor="start" x="115" y="-543.9" font-family="Arial" font-size="14.00" fill="#000000">deleted_at </text>
<text text-anchor="start" x="184.2566" y="-543.9" font-family="Arial" font-size="14.00" fill="#666666">[timestamp with time zone]</text>
<polygon fill="none" stroke="#000000" points="108,-502.5 108,-532.5 366,-532.5 366,-502.5 108,-502.5"/>
<text text-anchor="start" x="115" y="-513.9" font-family="Arial" font-size="14.00" fill="#000000">external_id </text>
<text text-anchor="start" x="187.3506" y="-513.9" font-family="Arial" font-size="14.00" fill="#666666">[bigint]</text>
<polygon fill="none" stroke="#000000" points="108,-472.5 108,-502.5 366,-502.5 366,-472.5 108,-472.5"/>
<text text-anchor="start" x="115" y="-483.9" font-family="Arial" font-size="14.00" fill="#000000">user_id </text>
<text text-anchor="start" x="164.7882" y="-483.9" font-family="Arial" font-size="14.00" fill="#666666">[bigint]</text>
<polygon fill="none" stroke="#000000" stroke-width="3" points="106.5,-471.5 106.5,-689.5 367.5,-689.5 367.5,-471.5 106.5,-471.5"/>
</g>
<!-- public.users -->
<g id="node2" class="node">
<title>public.users</title>
<polygon fill="#efefef" stroke="transparent" points="110,-312.5 110,-347.5 363,-347.5 363,-312.5 110,-312.5"/>
<polygon fill="none" stroke="#000000" points="110,-312.5 110,-347.5 363,-347.5 363,-312.5 110,-312.5"/>
<text text-anchor="start" x="139.8662" y="-325.3" font-family="Arial Bold" font-size="18.00" fill="#000000">public.users</text>
<text text-anchor="start" x="235.88" y="-325.3" font-family="Arial" font-size="14.00" fill="#000000"> </text>
<text text-anchor="start" x="239.7706" y="-325.3" font-family="Arial" font-size="14.00" fill="#666666">[BASE TABLE]</text>
<polygon fill="none" stroke="#000000" points="110,-282.5 110,-312.5 363,-312.5 363,-282.5 110,-282.5"/>
<text text-anchor="start" x="117" y="-293.9" font-family="Arial" font-size="14.00" fill="#000000">id </text>
<text text-anchor="start" x="131.7798" y="-293.9" font-family="Arial" font-size="14.00" fill="#666666">[bigint]</text>
<polygon fill="none" stroke="#000000" points="110,-252.5 110,-282.5 363,-282.5 363,-252.5 110,-252.5"/>
<text text-anchor="start" x="117" y="-263.9" font-family="Arial" font-size="14.00" fill="#000000">created_at </text>
<text text-anchor="start" x="187.028" y="-263.9" font-family="Arial" font-size="14.00" fill="#666666">[timestamp with time zone]</text>
<polygon fill="none" stroke="#000000" points="110,-222.5 110,-252.5 363,-252.5 363,-222.5 110,-222.5"/>
<text text-anchor="start" x="116.6915" y="-233.9" font-family="Arial" font-size="14.00" fill="#000000">updated_at </text>
<text text-anchor="start" x="190.6241" y="-233.9" font-family="Arial" font-size="14.00" fill="#666666">[timestamp with time zone]</text>
<polygon fill="none" stroke="#000000" points="110,-192.5 110,-222.5 363,-222.5 363,-192.5 110,-192.5"/>
<text text-anchor="start" x="117" y="-203.9" font-family="Arial" font-size="14.00" fill="#000000">deleted_at </text>
<text text-anchor="start" x="186.2566" y="-203.9" font-family="Arial" font-size="14.00" fill="#666666">[timestamp with time zone]</text>
<polygon fill="none" stroke="#000000" points="110,-162.5 110,-192.5 363,-192.5 363,-162.5 110,-162.5"/>
<text text-anchor="start" x="117" y="-173.9" font-family="Arial" font-size="14.00" fill="#000000">channel_id </text>
<text text-anchor="start" x="188.582" y="-173.9" font-family="Arial" font-size="14.00" fill="#666666">[text]</text>
<polygon fill="none" stroke="#000000" points="110,-132.5 110,-162.5 363,-162.5 363,-132.5 110,-132.5"/>
<text text-anchor="start" x="117" y="-143.9" font-family="Arial" font-size="14.00" fill="#000000">discord_account </text>
<text text-anchor="start" x="222.8092" y="-143.9" font-family="Arial" font-size="14.00" fill="#666666">[text]</text>
<polygon fill="none" stroke="#000000" points="110,-102.5 110,-132.5 363,-132.5 363,-102.5 110,-102.5"/>
<text text-anchor="start" x="117" y="-113.9" font-family="Arial" font-size="14.00" fill="#000000">login </text>
<text text-anchor="start" x="150.4516" y="-113.9" font-family="Arial" font-size="14.00" fill="#666666">[text]</text>
<polygon fill="none" stroke="#000000" points="110,-72.5 110,-102.5 363,-102.5 363,-72.5 110,-72.5"/>
<text text-anchor="start" x="117" y="-83.9" font-family="Arial" font-size="14.00" fill="#000000">password </text>
<text text-anchor="start" x="180.7882" y="-83.9" font-family="Arial" font-size="14.00" fill="#666666">[text]</text>
<polygon fill="none" stroke="#000000" points="110,-42.5 110,-72.5 363,-72.5 363,-42.5 110,-42.5"/>
<text text-anchor="start" x="117" y="-53.9" font-family="Arial" font-size="14.00" fill="#000000">status </text>
<text text-anchor="start" x="158.237" y="-53.9" font-family="Arial" font-size="14.00" fill="#666666">[text]</text>
</g>
<!-- public.notifications&#45;&gt;public.users -->
<g id="edge1" class="edge">
<title>public.notifications:user_id&#45;&gt;public.users:id</title>
<path fill="none" stroke="#000000" d="M237.8189,-462.5144C247.1086,-410.2882 332.8665,-446.3789 363,-391 382.8618,-354.4983 404.5556,-297.5 363,-297.5"/>
<polygon fill="#000000" stroke="#000000" points="237.8174,-462.5335 232.5151,-472.1322 237.4087,-467.5167 237,-472.5 237,-472.5 237,-472.5 237.4087,-467.5167 241.4849,-472.8678 237.8174,-462.5335 237.8174,-462.5335"/>
<text text-anchor="start" x="7.3345" y="-482.5" font-family="Arial" font-size="10.00" fill="#000000">FOREIGN KEY (user_id) REFERENCES users(id)</text>
</g>
</g>
</svg>
