<?xml version="1.0" encoding="UTF-8" standalone="no"?>
<!DOCTYPE svg PUBLIC "-//W3C//DTD SVG 1.1//EN"
 "http://www.w3.org/Graphics/SVG/1.1/DTD/svg11.dtd">
<!-- Generated by graphviz version 2.40.1 (20161225.0304)
 -->
<!-- Title: public.users Pages: 1 -->
<svg width="752pt" height="742pt"
 viewBox="0.00 0.00 751.50 742.00" xmlns="http://www.w3.org/2000/svg" xmlns:xlink="http://www.w3.org/1999/xlink">
<g id="graph0" class="graph" transform="scale(1 1) rotate(0) translate(4 738)">
<title>public.users</title>
<polygon fill="#ffffff" stroke="transparent" points="-4,4 -4,-738 747.5,-738 747.5,4 -4,4"/>
<!-- public.users -->
<g id="node1" class="node">
<title>public.users</title>
<polygon fill="#efefef" stroke="transparent" points="236,-315.5 236,-350.5 489,-350.5 489,-315.5 236,-315.5"/>
<polygon fill="none" stroke="#000000" points="236,-315.5 236,-350.5 489,-350.5 489,-315.5 236,-315.5"/>
<text text-anchor="start" x="265.8662" y="-328.3" font-family="Arial Bold" font-size="18.00" fill="#000000">public.users</text>
<text text-anchor="start" x="361.88" y="-328.3" font-family="Arial" font-size="14.00" fill="#000000"> </text>
<text text-anchor="start" x="365.7706" y="-328.3" font-family="Arial" font-size="14.00" fill="#666666">[BASE TABLE]</text>
<polygon fill="none" stroke="#000000" points="236,-285.5 236,-315.5 489,-315.5 489,-285.5 236,-285.5"/>
<text text-anchor="start" x="243" y="-296.9" font-family="Arial" font-size="14.00" fill="#000000">id </text>
<text text-anchor="start" x="257.7798" y="-296.9" font-family="Arial" font-size="14.00" fill="#666666">[bigint]</text>
<polygon fill="none" stroke="#000000" points="236,-255.5 236,-285.5 489,-285.5 489,-255.5 236,-255.5"/>
<text text-anchor="start" x="243" y="-266.9" font-family="Arial" font-size="14.00" fill="#000000">created_at </text>
<text text-anchor="start" x="313.028" y="-266.9" font-family="Arial" font-size="14.00" fill="#666666">[timestamp with time zone]</text>
<polygon fill="none" stroke="#000000" points="236,-225.5 236,-255.5 489,-255.5 489,-225.5 236,-225.5"/>
<text text-anchor="start" x="242.6915" y="-236.9" font-family="Arial" font-size="14.00" fill="#000000">updated_at </text>
<text text-anchor="start" x="316.6241" y="-236.9" font-family="Arial" font-size="14.00" fill="#666666">[timestamp with time zone]</text>
<polygon fill="none" stroke="#000000" points="236,-195.5 236,-225.5 489,-225.5 489,-195.5 236,-195.5"/>
<text text-anchor="start" x="243" y="-206.9" font-family="Arial" font-size="14.00" fill="#000000">deleted_at </text>
<text text-anchor="start" x="312.2566" y="-206.9" font-family="Arial" font-size="14.00" fill="#666666">[timestamp with time zone]</text>
<polygon fill="none" stroke="#000000" points="236,-165.5 236,-195.5 489,-195.5 489,-165.5 236,-165.5"/>
<text text-anchor="start" x="243" y="-176.9" font-family="Arial" font-size="14.00" fill="#000000">channel_id </text>
<text text-anchor="start" x="314.582" y="-176.9" font-family="Arial" font-size="14.00" fill="#666666">[text]</text>
<polygon fill="none" stroke="#000000" points="236,-135.5 236,-165.5 489,-165.5 489,-135.5 236,-135.5"/>
<text text-anchor="start" x="243" y="-146.9" font-family="Arial" font-size="14.00" fill="#000000">discord_account </text>
<text text-anchor="start" x="348.8092" y="-146.9" font-family="Arial" font-size="14.00" fill="#666666">[text]</text>
<polygon fill="none" stroke="#000000" points="236,-105.5 236,-135.5 489,-135.5 489,-105.5 236,-105.5"/>
<text text-anchor="start" x="243" y="-116.9" font-family="Arial" font-size="14.00" fill="#000000">login </text>
<text text-anchor="start" x="276.4516" y="-116.9" font-family="Arial" font-size="14.00" fill="#666666">[text]</text>
<polygon fill="none" stroke="#000000" points="236,-75.5 236,-105.5 489,-105.5 489,-75.5 236,-75.5"/>
<text text-anchor="start" x="243" y="-86.9" font-family="Arial" font-size="14.00" fill="#000000">password </text>
<text text-anchor="start" x="306.7882" y="-86.9" font-family="Arial" font-size="14.00" fill="#666666">[text]</text>
<polygon fill="none" stroke="#000000" points="236,-45.5 236,-75.5 489,-75.5 489,-45.5 236,-45.5"/>
<text text-anchor="start" x="243" y="-56.9" font-family="Arial" font-size="14.00" fill="#000000">status </text>
<text text-anchor="start" x="284.237" y="-56.9" font-family="Arial" font-size="14.00" fill="#666666">[text]</text>
<polygon fill="none" stroke="#000000" stroke-width="3" points="234,-44.5 234,-352.5 490,-352.5 490,-44.5 234,-44.5"/>
</g>
<!-- public.notifications -->
<g id="node2" class="node">
<title>public.notifications</title>
<polygon fill="#efefef" stroke="transparent" points="43,-655.5 43,-690.5 301,-690.5 301,-655.5 43,-655.5"/>
<polygon fill="none" stroke="#000000" points="43,-655.5 43,-690.5 301,-690.5 301,-655.5 43,-655.5"/>
<text text-anchor="start" x="49.8584" y="-668.3" font-family="Arial Bold" font-size="18.00" fill="#000000">public.notifications</text>
<text text-anchor="start" x="196.8878" y="-668.3" font-family="Arial" font-size="14.00" fill="#000000"> </text>
<text text-anchor="start" x="200.7784" y="-668.3" font-family="Arial" font-size="14.00" fill="#666666">[BASE TABLE]</text>
<polygon fill="none" stroke="#000000" points="43,-625.5 43,-655.5 301,-655.5 301,-625.5 43,-625.5"/>
<text text-anchor="start" x="50" y="-636.9" font-family="Arial" font-size="14.00" fill="#000000">id </text>
<text text-anchor="start" x="64.7798" y="-636.9" font-family="Arial" font-size="14.00" fill="#666666">[bigint]</text>
<polygon fill="none" stroke="#000000" points="43,-595.5 43,-625.5 301,-625.5 301,-595.5 43,-595.5"/>
<text text-anchor="start" x="50" y="-606.9" font-family="Arial" font-size="14.00" fill="#000000">created_at </text>
<text text-anchor="start" x="120.028" y="-606.9" font-family="Arial" font-size="14.00" fill="#666666">[timestamp with time zone]</text>
<polygon fill="none" stroke="#000000" points="43,-565.5 43,-595.5 301,-595.5 301,-565.5 43,-565.5"/>
<text text-anchor="start" x="50" y="-576.9" font-family="Arial" font-size="14.00" fill="#000000">updated_at </text>
<text text-anchor="start" x="123.9326" y="-576.9" font-family="Arial" font-size="14.00" fill="#666666">[timestamp with time zone]</text>
<polygon fill="none" stroke="#000000" points="43,-535.5 43,-565.5 301,-565.5 301,-535.5 43,-535.5"/>
<text text-anchor="start" x="50" y="-546.9" font-family="Arial" font-size="14.00" fill="#000000">deleted_at </text>
<text text-anchor="start" x="119.2566" y="-546.9" font-family="Arial" font-size="14.00" fill="#666666">[timestamp with time zone]</text>
<polygon fill="none" stroke="#000000" points="43,-505.5 43,-535.5 301,-535.5 301,-505.5 43,-505.5"/>
<text text-anchor="start" x="50" y="-516.9" font-family="Arial" font-size="14.00" fill="#000000">external_id </text>
<text text-anchor="start" x="122.3506" y="-516.9" font-family="Arial" font-size="14.00" fill="#666666">[bigint]</text>
<polygon fill="none" stroke="#000000" points="43,-475.5 43,-505.5 301,-505.5 301,-475.5 43,-475.5"/>
<text text-anchor="start" x="50" y="-486.9" font-family="Arial" font-size="14.00" fill="#000000">user_id </text>
<text text-anchor="start" x="99.7882" y="-486.9" font-family="Arial" font-size="14.00" fill="#666666">[bigint]</text>
</g>
<!-- public.notifications&#45;&gt;public.users -->
<g id="edge1" class="edge">
<title>public.notifications:user_id&#45;&gt;public.users:id</title>
<path fill="none" stroke="#000000" d="M310.6653,-487.8509C322.4168,-479.2196 311.8457,-451.4049 301,-433 284.2341,-404.5487 252.7659,-425.4513 236,-397 214.2257,-360.0495 193.1111,-300.5 236,-300.5"/>
<polygon fill="#000000" stroke="#000000" points="310.6443,-487.8566 299.8105,-486.1601 305.8222,-489.1783 301,-490.5 301,-490.5 301,-490.5 305.8222,-489.1783 302.1895,-494.8399 310.6443,-487.8566 310.6443,-487.8566"/>
<text text-anchor="start" x="308.3345" y="-500.5" font-family="Arial" font-size="10.00" fill="#000000">FOREIGN KEY (user_id) REFERENCES users(id)</text>
</g>
<!-- public.calendar_events -->
<g id="node3" class="node">
<title>public.calendar_events</title>
<polygon fill="#efefef" stroke="transparent" points="406,-655.5 406,-690.5 701,-690.5 701,-655.5 406,-655.5"/>
<polygon fill="none" stroke="#000000" points="406,-655.5 406,-690.5 701,-690.5 701,-655.5 406,-655.5"/>
<text text-anchor="start" x="412.8463" y="-668.3" font-family="Arial Bold" font-size="18.00" fill="#000000">public.calendar_events</text>
<text text-anchor="start" x="596.8999" y="-668.3" font-family="Arial" font-size="14.00" fill="#000000"> </text>
<text text-anchor="start" x="600.7905" y="-668.3" font-family="Arial" font-size="14.00" fill="#666666">[BASE TABLE]</text>
<polygon fill="none" stroke="#000000" points="406,-625.5 406,-655.5 701,-655.5 701,-625.5 406,-625.5"/>
<text text-anchor="start" x="413" y="-636.9" font-family="Arial" font-size="14.00" fill="#000000">id </text>
<text text-anchor="start" x="427.7798" y="-636.9" font-family="Arial" font-size="14.00" fill="#666666">[bigint]</text>
<polygon fill="none" stroke="#000000" points="406,-595.5 406,-625.5 701,-625.5 701,-595.5 406,-595.5"/>
<text text-anchor="start" x="413" y="-606.9" font-family="Arial" font-size="14.00" fill="#000000">created_at </text>
<text text-anchor="start" x="483.028" y="-606.9" font-family="Arial" font-size="14.00" fill="#666666">[timestamp with time zone]</text>
<polygon fill="none" stroke="#000000" points="406,-565.5 406,-595.5 701,-595.5 701,-565.5 406,-565.5"/>
<text text-anchor="start" x="413" y="-576.9" font-family="Arial" font-size="14.00" fill="#000000">updated_at </text>
<text text-anchor="start" x="486.9326" y="-576.9" font-family="Arial" font-size="14.00" fill="#666666">[timestamp with time zone]</text>
<polygon fill="none" stroke="#000000" points="406,-535.5 406,-565.5 701,-565.5 701,-535.5 406,-535.5"/>
<text text-anchor="start" x="413" y="-546.9" font-family="Arial" font-size="14.00" fill="#000000">deleted_at </text>
<text text-anchor="start" x="482.2566" y="-546.9" font-family="Arial" font-size="14.00" fill="#666666">[timestamp with time zone]</text>
<polygon fill="none" stroke="#000000" points="406,-505.5 406,-535.5 701,-535.5 701,-505.5 406,-505.5"/>
<text text-anchor="start" x="413" y="-516.9" font-family="Arial" font-size="14.00" fill="#000000">external_id </text>
<text text-anchor="start" x="485.3506" y="-516.9" font-family="Arial" font-size="14.00" fill="#666666">[bigint]</text>
<polygon fill="none" stroke="#000000" points="406,-475.5 406,-505.5 701,-505.5 701,-475.5 406,-475.5"/>
<text text-anchor="start" x="413" y="-486.9" font-family="Arial" font-size="14.00" fill="#000000">user_id </text>
<text text-anchor="start" x="462.7882" y="-486.9" font-family="Arial" font-size="14.00" fill="#666666">[bigint]</text>
</g>
<!-- public.calendar_events&#45;&gt;public.users -->
<g id="edge2" class="edge">
<title>public.calendar_events:user_id&#45;&gt;public.users:id</title>
<path fill="none" stroke="#000000" d="M396.264,-487.8069C384.296,-479.0409 394.2788,-450.8601 406,-433 428.0617,-399.3835 466.9383,-430.6165 489,-397 512.5319,-361.1433 531.8889,-300.5 489,-300.5"/>
<polygon fill="#000000" stroke="#000000" points="396.3619,-487.8339 404.8003,-494.8371 401.181,-489.167 406,-490.5 406,-490.5 406,-490.5 401.181,-489.167 407.1997,-486.1629 396.3619,-487.8339 396.3619,-487.8339"/>
<text text-anchor="start" x="354.0845" y="-474.5" font-family="Arial" font-size="10.00" fill="#000000">FOREIGN KEY (user_id) REFERENCES users(id)</text>
</g>
</g>
</svg>
