<?xml version="1.0" encoding="UTF-8" standalone="no"?>
<!DOCTYPE svg PUBLIC "-//W3C//DTD SVG 1.1//EN"
 "http://www.w3.org/Graphics/SVG/1.1/DTD/svg11.dtd">
<!-- Generated by graphviz version 2.40.1 (20161225.0304)
 -->
<!-- Title: public.calendar_events Pages: 1 -->
<svg width="440pt" height="742pt"
 viewBox="0.00 0.00 439.50 742.00" xmlns="http://www.w3.org/2000/svg" xmlns:xlink="http://www.w3.org/1999/xlink">
<g id="graph0" class="graph" transform="scale(1 1) rotate(0) translate(4 738)">
<title>public.calendar_events</title>
<polygon fill="#ffffff" stroke="transparent" points="-4,4 -4,-738 435.5,-738 435.5,4 -4,4"/>
<!-- public.calendar_events -->
<g id="node1" class="node">
<title>public.calendar_events</title>
<polygon fill="#efefef" stroke="transparent" points="46.5,-652.5 46.5,-687.5 341.5,-687.5 341.5,-652.5 46.5,-652.5"/>
<polygon fill="none" stroke="#000000" points="46.5,-652.5 46.5,-687.5 341.5,-687.5 341.5,-652.5 46.5,-652.5"/>
<text text-anchor="start" x="53.3463" y="-665.3" font-family="Arial Bold" font-size="18.00" fill="#000000">public.calendar_events</text>
<text text-anchor="start" x="237.3999" y="-665.3" font-family="Arial" font-size="14.00" fill="#000000"> </text>
<text text-anchor="start" x="241.2905" y="-665.3" font-family="Arial" font-size="14.00" fill="#666666">[BASE TABLE]</text>
<polygon fill="none" stroke="#000000" points="46.5,-622.5 46.5,-652.5 341.5,-652.5 341.5,-622.5 46.5,-622.5"/>
<text text-anchor="start" x="53.5" y="-633.9" font-family="Arial" font-size="14.00" fill="#000000">id </text>
<text text-anchor="start" x="68.2798" y="-633.9" font-family="Arial" font-size="14.00" fill="#666666">[bigint]</text>
<polygon fill="none" stroke="#000000" points="46.5,-592.5 46.5,-622.5 341.5,-622.5 341.5,-592.5 46.5,-592.5"/>
<text text-anchor="start" x="53.5" y="-603.9" font-family="Arial" font-size="14.00" fill="#000000">created_at </text>
<text text-anchor="start" x="123.528" y="-603.9" font-family="Arial" font-size="14.00" fill="#666666">[timestamp with time zone]</text>
<polygon fill="none" stroke="#000000" points="46.5,-562.5 46.5,-592.5 341.5,-592.5 341.5,-562.5 46.5,-562.5"/>
<text text-anchor="start" x="53.5" y="-573.9" font-family="Arial" font-size="14.00" fill="#000000">updated_at </text>
<text text-anchor="start" x="127.4326" y="-573.9" font-family="Arial" font-size="14.00" fill="#666666">[timestamp with time zone]</text>
<polygon fill="none" stroke="#000000" points="46.5,-532.5 46.5,-562.5 341.5,-562.5 341.5,-532.5 46.5,-532.5"/>
<text text-anchor="start" x="53.5" y="-543.9" font-family="Arial" font-size="14.00" fill="#000000">deleted_at </text>
<text text-anchor="start" x="122.7566" y="-543.9" font-family="Arial" font-size="14.00" fill="#666666">[timestamp with time zone]</text>
<polygon fill="none" stroke="#000000" points="46.5,-502.5 46.5,-532.5 341.5,-532.5 341.5,-502.5 46.5,-502.5"/>
<text text-anchor="start" x="53.5" y="-513.9" font-family="Arial" font-size="14.00" fill="#000000">external_id </text>
<text text-anchor="start" x="125.8506" y="-513.9" font-family="Arial" font-size="14.00" fill="#666666">[bigint]</text>
<polygon fill="none" stroke="#000000" points="46.5,-472.5 46.5,-502.5 341.5,-502.5 341.5,-472.5 46.5,-472.5"/>
<text text-anchor="start" x="53.5" y="-483.9" font-family="Arial" font-size="14.00" fill="#000000">user_id </text>
<text text-anchor="start" x="103.2882" y="-483.9" font-family="Arial" font-size="14.00" fill="#666666">[bigint]</text>
<polygon fill="none" stroke="#000000" stroke-width="3" points="44.5,-471.5 44.5,-689.5 342.5,-689.5 342.5,-471.5 44.5,-471.5"/>
</g>
<!-- public.users -->
<g id="node2" class="node">
<title>public.users</title>
<polygon fill="#efefef" stroke="transparent" points="67.5,-312.5 67.5,-347.5 320.5,-347.5 320.5,-312.5 67.5,-312.5"/>
<polygon fill="none" stroke="#000000" points="67.5,-312.5 67.5,-347.5 320.5,-347.5 320.5,-312.5 67.5,-312.5"/>
<text text-anchor="start" x="97.3662" y="-325.3" font-family="Arial Bold" font-size="18.00" fill="#000000">public.users</text>
<text text-anchor="start" x="193.38" y="-325.3" font-family="Arial" font-size="14.00" fill="#000000"> </text>
<text text-anchor="start" x="197.2706" y="-325.3" font-family="Arial" font-size="14.00" fill="#666666">[BASE TABLE]</text>
<polygon fill="none" stroke="#000000" points="67.5,-282.5 67.5,-312.5 320.5,-312.5 320.5,-282.5 67.5,-282.5"/>
<text text-anchor="start" x="74.5" y="-293.9" font-family="Arial" font-size="14.00" fill="#000000">id </text>
<text text-anchor="start" x="89.2798" y="-293.9" font-family="Arial" font-size="14.00" fill="#666666">[bigint]</text>
<polygon fill="none" stroke="#000000" points="67.5,-252.5 67.5,-282.5 320.5,-282.5 320.5,-252.5 67.5,-252.5"/>
<text text-anchor="start" x="74.5" y="-263.9" font-family="Arial" font-size="14.00" fill="#000000">created_at </text>
<text text-anchor="start" x="144.528" y="-263.9" font-family="Arial" font-size="14.00" fill="#666666">[timestamp with time zone]</text>
<polygon fill="none" stroke="#000000" points="67.5,-222.5 67.5,-252.5 320.5,-252.5 320.5,-222.5 67.5,-222.5"/>
<text text-anchor="start" x="74.1915" y="-233.9" font-family="Arial" font-size="14.00" fill="#000000">updated_at </text>
<text text-anchor="start" x="148.1241" y="-233.9" font-family="Arial" font-size="14.00" fill="#666666">[timestamp with time zone]</text>
<polygon fill="none" stroke="#000000" points="67.5,-192.5 67.5,-222.5 320.5,-222.5 320.5,-192.5 67.5,-192.5"/>
<text text-anchor="start" x="74.5" y="-203.9" font-family="Arial" font-size="14.00" fill="#000000">deleted_at </text>
<text text-anchor="start" x="143.7566" y="-203.9" font-family="Arial" font-size="14.00" fill="#666666">[timestamp with time zone]</text>
<polygon fill="none" stroke="#000000" points="67.5,-162.5 67.5,-192.5 320.5,-192.5 320.5,-162.5 67.5,-162.5"/>
<text text-anchor="start" x="74.5" y="-173.9" font-family="Arial" font-size="14.00" fill="#000000">channel_id </text>
<text text-anchor="start" x="146.082" y="-173.9" font-family="Arial" font-size="14.00" fill="#666666">[text]</text>
<polygon fill="none" stroke="#000000" points="67.5,-132.5 67.5,-162.5 320.5,-162.5 320.5,-132.5 67.5,-132.5"/>
<text text-anchor="start" x="74.5" y="-143.9" font-family="Arial" font-size="14.00" fill="#000000">discord_account </text>
<text text-anchor="start" x="180.3092" y="-143.9" font-family="Arial" font-size="14.00" fill="#666666">[text]</text>
<polygon fill="none" stroke="#000000" points="67.5,-102.5 67.5,-132.5 320.5,-132.5 320.5,-102.5 67.5,-102.5"/>
<text text-anchor="start" x="74.5" y="-113.9" font-family="Arial" font-size="14.00" fill="#000000">login </text>
<text text-anchor="start" x="107.9516" y="-113.9" font-family="Arial" font-size="14.00" fill="#666666">[text]</text>
<polygon fill="none" stroke="#000000" points="67.5,-72.5 67.5,-102.5 320.5,-102.5 320.5,-72.5 67.5,-72.5"/>
<text text-anchor="start" x="74.5" y="-83.9" font-family="Arial" font-size="14.00" fill="#000000">password </text>
<text text-anchor="start" x="138.2882" y="-83.9" font-family="Arial" font-size="14.00" fill="#666666">[text]</text>
<polygon fill="none" stroke="#000000" points="67.5,-42.5 67.5,-72.5 320.5,-72.5 320.5,-42.5 67.5,-42.5"/>
<text text-anchor="start" x="74.5" y="-53.9" font-family="Arial" font-size="14.00" fill="#000000">status </text>
<text text-anchor="start" x="115.737" y="-53.9" font-family="Arial" font-size="14.00" fill="#666666">[text]</text>
</g>
<!-- public.calendar_events&#45;&gt;public.users -->
<g id="edge1" class="edge">
<title>public.calendar_events:user_id&#45;&gt;public.users:id</title>
<path fill="none" stroke="#000000" d="M193.6749,-462.4619C184.3145,-409.9823 97.9025,-446.6345 67.5,-391 47.5726,-354.5341 25.9444,-297.5 67.5,-297.5"/>
<polygon fill="#000000" stroke="#000000" points="193.6807,-462.5336 190.0151,-472.8687 194.0903,-467.5168 194.5,-472.5 194.5,-472.5 194.5,-472.5 194.0903,-467.5168 198.9849,-472.1313 193.6807,-462.5336 193.6807,-462.5336"/>
<text text-anchor="start" x="201.8345" y="-482.5" font-family="Arial" font-size="10.00" fill="#000000">FOREIGN KEY (user_id) REFERENCES users(id)</text>
</g>
</g>
</svg>
