<?xml version="1.0" encoding="UTF-8" standalone="no"?>
<!DOCTYPE svg PUBLIC "-//W3C//DTD SVG 1.1//EN"
 "http://www.w3.org/Graphics/SVG/1.1/DTD/svg11.dtd">
<!-- Generated by graphviz version 2.40.1 (20161225.0304)
 -->
<!-- Title: etna Pages: 1 -->
<svg width="1175pt" height="736pt"
 viewBox="0.00 0.00 1175.00 736.00" xmlns="http://www.w3.org/2000/svg" xmlns:xlink="http://www.w3.org/1999/xlink">
<g id="graph0" class="graph" transform="scale(1 1) rotate(0) translate(4 732)">
<title>etna</title>
<polygon fill="#ffffff" stroke="transparent" points="-4,4 -4,-732 1171,-732 1171,4 -4,4"/>
<!-- public.schema_migrations -->
<g id="node1" class="node">
<title>public.schema_migrations</title>
<polygon fill="#efefef" stroke="transparent" points="43.5,-589.5 43.5,-624.5 362.5,-624.5 362.5,-589.5 43.5,-589.5"/>
<polygon fill="none" stroke="#000000" points="43.5,-589.5 43.5,-624.5 362.5,-624.5 362.5,-589.5 43.5,-589.5"/>
<text text-anchor="start" x="50.3601" y="-602.3" font-family="Arial Bold" font-size="18.00" fill="#000000">public.schema_migrations</text>
<text text-anchor="start" x="258.3861" y="-602.3" font-family="Arial" font-size="14.00" fill="#000000"> </text>
<text text-anchor="start" x="262.2767" y="-602.3" font-family="Arial" font-size="14.00" fill="#666666">[BASE TABLE]</text>
<polygon fill="none" stroke="#000000" points="43.5,-559.5 43.5,-589.5 362.5,-589.5 362.5,-559.5 43.5,-559.5"/>
<text text-anchor="start" x="50.5" y="-570.9" font-family="Arial" font-size="14.00" fill="#000000">version </text>
<text text-anchor="start" x="99.5056" y="-570.9" font-family="Arial" font-size="14.00" fill="#666666">[bigint]</text>
<polygon fill="none" stroke="#000000" points="43.5,-529.5 43.5,-559.5 362.5,-559.5 362.5,-529.5 43.5,-529.5"/>
<text text-anchor="start" x="50.5" y="-540.9" font-family="Arial" font-size="14.00" fill="#000000">dirty </text>
<text text-anchor="start" x="80.831" y="-540.9" font-family="Arial" font-size="14.00" fill="#666666">[boolean]</text>
</g>
<!-- public.users -->
<g id="node2" class="node">
<title>public.users</title>
<polygon fill="#efefef" stroke="transparent" points="659.5,-312.5 659.5,-347.5 912.5,-347.5 912.5,-312.5 659.5,-312.5"/>
<polygon fill="none" stroke="#000000" points="659.5,-312.5 659.5,-347.5 912.5,-347.5 912.5,-312.5 659.5,-312.5"/>
<text text-anchor="start" x="689.3662" y="-325.3" font-family="Arial Bold" font-size="18.00" fill="#000000">public.users</text>
<text text-anchor="start" x="785.38" y="-325.3" font-family="Arial" font-size="14.00" fill="#000000"> </text>
<text text-anchor="start" x="789.2706" y="-325.3" font-family="Arial" font-size="14.00" fill="#666666">[BASE TABLE]</text>
<polygon fill="none" stroke="#000000" points="659.5,-282.5 659.5,-312.5 912.5,-312.5 912.5,-282.5 659.5,-282.5"/>
<text text-anchor="start" x="666.5" y="-293.9" font-family="Arial" font-size="14.00" fill="#000000">id </text>
<text text-anchor="start" x="681.2798" y="-293.9" font-family="Arial" font-size="14.00" fill="#666666">[bigint]</text>
<polygon fill="none" stroke="#000000" points="659.5,-252.5 659.5,-282.5 912.5,-282.5 912.5,-252.5 659.5,-252.5"/>
<text text-anchor="start" x="666.5" y="-263.9" font-family="Arial" font-size="14.00" fill="#000000">created_at </text>
<text text-anchor="start" x="736.528" y="-263.9" font-family="Arial" font-size="14.00" fill="#666666">[timestamp with time zone]</text>
<polygon fill="none" stroke="#000000" points="659.5,-222.5 659.5,-252.5 912.5,-252.5 912.5,-222.5 659.5,-222.5"/>
<text text-anchor="start" x="666.1915" y="-233.9" font-family="Arial" font-size="14.00" fill="#000000">updated_at </text>
<text text-anchor="start" x="740.1241" y="-233.9" font-family="Arial" font-size="14.00" fill="#666666">[timestamp with time zone]</text>
<polygon fill="none" stroke="#000000" points="659.5,-192.5 659.5,-222.5 912.5,-222.5 912.5,-192.5 659.5,-192.5"/>
<text text-anchor="start" x="666.5" y="-203.9" font-family="Arial" font-size="14.00" fill="#000000">deleted_at </text>
<text text-anchor="start" x="735.7566" y="-203.9" font-family="Arial" font-size="14.00" fill="#666666">[timestamp with time zone]</text>
<polygon fill="none" stroke="#000000" points="659.5,-162.5 659.5,-192.5 912.5,-192.5 912.5,-162.5 659.5,-162.5"/>
<text text-anchor="start" x="666.5" y="-173.9" font-family="Arial" font-size="14.00" fill="#000000">channel_id </text>
<text text-anchor="start" x="738.082" y="-173.9" font-family="Arial" font-size="14.00" fill="#666666">[text]</text>
<polygon fill="none" stroke="#000000" points="659.5,-132.5 659.5,-162.5 912.5,-162.5 912.5,-132.5 659.5,-132.5"/>
<text text-anchor="start" x="666.5" y="-143.9" font-family="Arial" font-size="14.00" fill="#000000">discord_account </text>
<text text-anchor="start" x="772.3092" y="-143.9" font-family="Arial" font-size="14.00" fill="#666666">[text]</text>
<polygon fill="none" stroke="#000000" points="659.5,-102.5 659.5,-132.5 912.5,-132.5 912.5,-102.5 659.5,-102.5"/>
<text text-anchor="start" x="666.5" y="-113.9" font-family="Arial" font-size="14.00" fill="#000000">login </text>
<text text-anchor="start" x="699.9516" y="-113.9" font-family="Arial" font-size="14.00" fill="#666666">[text]</text>
<polygon fill="none" stroke="#000000" points="659.5,-72.5 659.5,-102.5 912.5,-102.5 912.5,-72.5 659.5,-72.5"/>
<text text-anchor="start" x="666.5" y="-83.9" font-family="Arial" font-size="14.00" fill="#000000">password </text>
<text text-anchor="start" x="730.2882" y="-83.9" font-family="Arial" font-size="14.00" fill="#666666">[text]</text>
<polygon fill="none" stroke="#000000" points="659.5,-42.5 659.5,-72.5 912.5,-72.5 912.5,-42.5 659.5,-42.5"/>
<text text-anchor="start" x="666.5" y="-53.9" font-family="Arial" font-size="14.00" fill="#000000">status </text>
<text text-anchor="start" x="707.737" y="-53.9" font-family="Arial" font-size="14.00" fill="#666666">[text]</text>
</g>
<!-- public.notifications -->
<g id="node3" class="node">
<title>public.notifications</title>
<polygon fill="#efefef" stroke="transparent" points="466.5,-649.5 466.5,-684.5 724.5,-684.5 724.5,-649.5 466.5,-649.5"/>
<polygon fill="none" stroke="#000000" points="466.5,-649.5 466.5,-684.5 724.5,-684.5 724.5,-649.5 466.5,-649.5"/>
<text text-anchor="start" x="473.3584" y="-662.3" font-family="Arial Bold" font-size="18.00" fill="#000000">public.notifications</text>
<text text-anchor="start" x="620.3878" y="-662.3" font-family="Arial" font-size="14.00" fill="#000000"> </text>
<text text-anchor="start" x="624.2784" y="-662.3" font-family="Arial" font-size="14.00" fill="#666666">[BASE TABLE]</text>
<polygon fill="none" stroke="#000000" points="466.5,-619.5 466.5,-649.5 724.5,-649.5 724.5,-619.5 466.5,-619.5"/>
<text text-anchor="start" x="473.5" y="-630.9" font-family="Arial" font-size="14.00" fill="#000000">id </text>
<text text-anchor="start" x="488.2798" y="-630.9" font-family="Arial" font-size="14.00" fill="#666666">[bigint]</text>
<polygon fill="none" stroke="#000000" points="466.5,-589.5 466.5,-619.5 724.5,-619.5 724.5,-589.5 466.5,-589.5"/>
<text text-anchor="start" x="473.5" y="-600.9" font-family="Arial" font-size="14.00" fill="#000000">created_at </text>
<text text-anchor="start" x="543.528" y="-600.9" font-family="Arial" font-size="14.00" fill="#666666">[timestamp with time zone]</text>
<polygon fill="none" stroke="#000000" points="466.5,-559.5 466.5,-589.5 724.5,-589.5 724.5,-559.5 466.5,-559.5"/>
<text text-anchor="start" x="473.5" y="-570.9" font-family="Arial" font-size="14.00" fill="#000000">updated_at </text>
<text text-anchor="start" x="547.4326" y="-570.9" font-family="Arial" font-size="14.00" fill="#666666">[timestamp with time zone]</text>
<polygon fill="none" stroke="#000000" points="466.5,-529.5 466.5,-559.5 724.5,-559.5 724.5,-529.5 466.5,-529.5"/>
<text text-anchor="start" x="473.5" y="-540.9" font-family="Arial" font-size="14.00" fill="#000000">deleted_at </text>
<text text-anchor="start" x="542.7566" y="-540.9" font-family="Arial" font-size="14.00" fill="#666666">[timestamp with time zone]</text>
<polygon fill="none" stroke="#000000" points="466.5,-499.5 466.5,-529.5 724.5,-529.5 724.5,-499.5 466.5,-499.5"/>
<text text-anchor="start" x="473.5" y="-510.9" font-family="Arial" font-size="14.00" fill="#000000">external_id </text>
<text text-anchor="start" x="545.8506" y="-510.9" font-family="Arial" font-size="14.00" fill="#666666">[bigint]</text>
<polygon fill="none" stroke="#000000" points="466.5,-469.5 466.5,-499.5 724.5,-499.5 724.5,-469.5 466.5,-469.5"/>
<text text-anchor="start" x="473.5" y="-480.9" font-family="Arial" font-size="14.00" fill="#000000">user_id </text>
<text text-anchor="start" x="523.2882" y="-480.9" font-family="Arial" font-size="14.00" fill="#666666">[bigint]</text>
</g>
<!-- public.notifications&#45;&gt;public.users -->
<g id="edge1" class="edge">
<title>public.notifications:user_id&#45;&gt;public.users:id</title>
<path fill="none" stroke="#000000" d="M734.1653,-481.8509C745.9168,-473.2196 735.3457,-445.4049 724.5,-427 707.7341,-398.5487 676.2659,-419.4513 659.5,-391 638.4026,-355.1983 617.9444,-297.5 659.5,-297.5"/>
<polygon fill="#000000" stroke="#000000" points="734.1443,-481.8566 723.3105,-480.1601 729.3222,-483.1783 724.5,-484.5 724.5,-484.5 724.5,-484.5 729.3222,-483.1783 725.6895,-488.8399 734.1443,-481.8566 734.1443,-481.8566"/>
<text text-anchor="start" x="613.3345" y="-468.5" font-family="Arial" font-size="10.00" fill="#000000">FOREIGN KEY (user_id) REFERENCES users(id)</text>
</g>
<!-- public.calendar_events -->
<g id="node4" class="node">
<title>public.calendar_events</title>
<polygon fill="#efefef" stroke="transparent" points="829.5,-649.5 829.5,-684.5 1124.5,-684.5 1124.5,-649.5 829.5,-649.5"/>
<polygon fill="none" stroke="#000000" points="829.5,-649.5 829.5,-684.5 1124.5,-684.5 1124.5,-649.5 829.5,-649.5"/>
<text text-anchor="start" x="836.3463" y="-662.3" font-family="Arial Bold" font-size="18.00" fill="#000000">public.calendar_events</text>
<text text-anchor="start" x="1020.3999" y="-662.3" font-family="Arial" font-size="14.00" fill="#000000"> </text>
<text text-anchor="start" x="1024.2905" y="-662.3" font-family="Arial" font-size="14.00" fill="#666666">[BASE TABLE]</text>
<polygon fill="none" stroke="#000000" points="829.5,-619.5 829.5,-649.5 1124.5,-649.5 1124.5,-619.5 829.5,-619.5"/>
<text text-anchor="start" x="836.5" y="-630.9" font-family="Arial" font-size="14.00" fill="#000000">id </text>
<text text-anchor="start" x="851.2798" y="-630.9" font-family="Arial" font-size="14.00" fill="#666666">[bigint]</text>
<polygon fill="none" stroke="#000000" points="829.5,-589.5 829.5,-619.5 1124.5,-619.5 1124.5,-589.5 829.5,-589.5"/>
<text text-anchor="start" x="836.5" y="-600.9" font-family="Arial" font-size="14.00" fill="#000000">created_at </text>
<text text-anchor="start" x="906.528" y="-600.9" font-family="Arial" font-size="14.00" fill="#666666">[timestamp with time zone]</text>
<polygon fill="none" stroke="#000000" points="829.5,-559.5 829.5,-589.5 1124.5,-589.5 1124.5,-559.5 829.5,-559.5"/>
<text text-anchor="start" x="836.5" y="-570.9" font-family="Arial" font-size="14.00" fill="#000000">updated_at </text>
<text text-anchor="start" x="910.4326" y="-570.9" font-family="Arial" font-size="14.00" fill="#666666">[timestamp with time zone]</text>
<polygon fill="none" stroke="#000000" points="829.5,-529.5 829.5,-559.5 1124.5,-559.5 1124.5,-529.5 829.5,-529.5"/>
<text text-anchor="start" x="836.5" y="-540.9" font-family="Arial" font-size="14.00" fill="#000000">deleted_at </text>
<text text-anchor="start" x="905.7566" y="-540.9" font-family="Arial" font-size="14.00" fill="#666666">[timestamp with time zone]</text>
<polygon fill="none" stroke="#000000" points="829.5,-499.5 829.5,-529.5 1124.5,-529.5 1124.5,-499.5 829.5,-499.5"/>
<text text-anchor="start" x="836.5" y="-510.9" font-family="Arial" font-size="14.00" fill="#000000">external_id </text>
<text text-anchor="start" x="908.8506" y="-510.9" font-family="Arial" font-size="14.00" fill="#666666">[bigint]</text>
<polygon fill="none" stroke="#000000" points="829.5,-469.5 829.5,-499.5 1124.5,-499.5 1124.5,-469.5 829.5,-469.5"/>
<text text-anchor="start" x="836.5" y="-480.9" font-family="Arial" font-size="14.00" fill="#000000">user_id </text>
<text text-anchor="start" x="886.2882" y="-480.9" font-family="Arial" font-size="14.00" fill="#666666">[bigint]</text>
</g>
<!-- public.calendar_events&#45;&gt;public.users -->
<g id="edge2" class="edge">
<title>public.calendar_events:user_id&#45;&gt;public.users:id</title>
<path fill="none" stroke="#000000" d="M819.764,-481.8069C807.796,-473.0409 817.7788,-444.8601 829.5,-427 851.5617,-393.3835 890.4383,-424.6165 912.5,-391 935.3004,-356.258 954.0556,-297.5 912.5,-297.5"/>
<polygon fill="#000000" stroke="#000000" points="819.8619,-481.8339 828.3003,-488.8371 824.681,-483.167 829.5,-484.5 829.5,-484.5 829.5,-484.5 824.681,-483.167 830.6997,-480.1629 819.8619,-481.8339 819.8619,-481.8339"/>
<text text-anchor="start" x="599.8345" y="-494.5" font-family="Arial" font-size="10.00" fill="#000000">FOREIGN KEY (user_id) REFERENCES users(id)</text>
</g>
</g>
</svg>
